<svg xmlns="http://www.w3.org/2000/svg" style="display: none;">
  <defs>
    <!-- Existing Icons -->
    <symbol id="icon-plus" viewBox="0 0 20 20">
      <path fill-rule="evenodd" d="M10 3a1 1 0 011 1v5h5a1 1 0 110 2h-5v5a1 1 0 11-2 0v-5H4a1 1 0 110-2h5V4a1 1 0 011-1z" clip-rule="evenodd"/>
    </symbol>
    <symbol id="icon-check-circle" viewBox="0 0 20 20">
      <path fill-rule="evenodd" d="M10 18a8 8 0 100-16 8 8 0 000 16zm3.707-9.293a1 1 0 00-1.414-1.414L9 10.586 7.707 9.293a1 1 0 00-1.414 1.414l2 2a1 1 0 001.414 0l4-4z" clip-rule="evenodd"/>
    </symbol>
    <symbol id="icon-warning" viewBox="0 0 20 20">
      <path fill-rule="evenodd" d="M8.257 3.099c.765-1.36 2.722-1.36 3.486 0l5.58 9.92c.75 1.334-.213 2.98-1.742 2.98H4.42c-1.53 0-2.493-1.646-1.743-2.98l5.58-9.92zM11 13a1 1 0 11-2 0 1 1 0 012 0zm-1-8a1 1 0 00-1 1v3a1 1 0 002 0V6a1 1 0 00-1-1z" clip-rule="evenodd"/>
    </symbol>
    <symbol id="icon-search" viewBox="0 0 20 20">
      <path fill-rule="evenodd" d="M8 4a4 4 0 100 8 4 4 0 000-8zM2 8a6 6 0 1110.89 3.476l4.817 4.817a1 1 0 01-1.414 1.414l-4.816-4.816A6 6 0 012 8z" clip-rule="evenodd"/>
    </symbol>
    <symbol id="icon-globe" viewBox="0 0 20 20">
      <path fill-rule="evenodd" d="M4.083 9h1.946c.089-1.546.383-2.97.837-4.118A6.004 6.004 0 004.083 9zM10 2a8 8 0 100 16 8 8 0 000-16zm0 2c-.076 0-.232.032-.465.262-.238.234-.497.623-.737 1.182-.389.907-.673 2.142-.766 3.556h3.936c-.093-1.414-.377-2.649-.766-3.556-.24-.56-.5-.948-.737-1.182C10.232 4.032 10.076 4 10 4zm3.971 5c-.089-1.546-.383-2.97-.837-4.118A6.004 6.004 0 0115.917 9h-1.946zm-2.003 2H8.032c.093 1.414.377 2.649.766 3.556.24.56.5.948.737 1.182.233.23.389.262.465.262.076 0 .232-.032.465-.262.238-.234.498-.623.737-1.182.389-.907.673-2.142.766-3.556zm1.166 4.118c.454-1.147.748-2.572.837-4.118h1.946a6.004 6.004 0 01-2.783 4.118zm-6.268 0C6.412 13.97 6.118 12.546 6.03 11H4.083a6.004 6.004 0 002.783 4.118z" clip-rule="evenodd"/>
    </symbol>
    <symbol id="icon-chart" viewBox="0 0 20 20">
      <path d="M2 10a8 8 0 018-8v8h8a8 8 0 11-16 0z"/>
      <path d="M12 2.252A8.014 8.014 0 0117.748 8H12V2.252z"/>
    </symbol>
    <symbol id="icon-compare" viewBox="0 0 20 20">
      <path d="M6 3v4h4l-1-1 5-5-1-1-5 5-1-1H6zM14 17v-4h-4l1 1-5 5 1 1 5-5 1 1h4z"/>
    </symbol>
    <symbol id="icon-menu" viewBox="0 0 20 20">
      <path d="M10 6a2 2 0 110-4 2 2 0 010 4zM10 12a2 2 0 110-4 2 2 0 010 4zM10 18a2 2 0 110-4 2 2 0 010 4z"/>
    </symbol>
    <symbol id="icon-edit" viewBox="0 0 20 20">
      <path d="M13.586 3.586a2 2 0 112.828 2.828l-.793.793-2.828-2.828.793-.793zM11.379 5.793L3 14.172V17h2.828l8.38-8.379-2.83-2.828z"/>
    </symbol>
    <symbol id="icon-delete" viewBox="0 0 20 20">
      <path fill-rule="evenodd" d="M9 2a1 1 0 000 2h2a1 1 0 100-2H9z" clip-rule="evenodd"/>
      <path fill-rule="evenodd" d="M10 18a8 8 0 100-16 8 8 0 000 16zM8.707 7.293a1 1 0 00-1.414 1.414L8.586 10l-1.293 1.293a1 1 0 101.414 1.414L10 11.414l1.293 1.293a1 1 0 001.414-1.414L11.414 10l1.293-1.293a1 1 0 00-1.414-1.414L10 8.586 8.707 7.293z" clip-rule="evenodd"/>
    </symbol>
    <symbol id="icon-grid" viewBox="0 0 20 20">
      <path d="M5 3a2 2 0 00-2 2v2a2 2 0 002 2h2a2 2 0 002-2V5a2 2 0 00-2-2H5zM5 11a2 2 0 00-2 2v2a2 2 0 002 2h2a2 2 0 002-2v-2a2 2 0 00-2-2H5zM11 5a2 2 0 012-2h2a2 2 0 012 2v2a2 2 0 01-2 2h-2a2 2 0 01-2-2V5zM11 13a2 2 0 012-2h2a2 2 0 012 2v2a2 2 0 01-2 2h-2a2 2 0 01-2-2v-2z"/>
    </symbol>
    <symbol id="icon-list" viewBox="0 0 20 20">
      <path fill-rule="evenodd" d="M3 4a1 1 0 011-1h12a1 1 0 110 2H4a1 1 0 01-1-1zm0 4a1 1 0 011-1h12a1 1 0 110 2H4a1 1 0 01-1-1zm0 4a1 1 0 011-1h12a1 1 0 110 2H4a1 1 0 01-1-1z" clip-rule="evenodd"/>
    </symbol>
    <symbol id="icon-spinner" viewBox="0 0 24 24">
      <circle class="opacity-25" cx="12" cy="12" r="10" stroke="currentColor" stroke-width="4"></circle>
      <path class="opacity-75" fill="currentColor" d="M4 12a8 8 0 018-8v4a4 4 0 00-4 4H4z"></path>
    </symbol>

    <!-- New Icons Extracted from node.ejs -->
    <symbol id="icon-back" viewBox="0 0 20 20">
      <path fill-rule="evenodd" d="M9.707 16.707a1 1 0 01-1.414 0l-6-6a1 1 0 010-1.414l6-6a1 1 0 011.414 1.414L5.414 9H17a1 1 0 110 2H5.414l4.293 4.293a1 1 0 010 1.414z" clip-rule="evenodd"/>
    </symbol>
    <symbol id="icon-pause" viewBox="0 0 20 20">
      <path fill-rule="evenodd" d="M18 10a8 8 0 11-16 0 8 8 0 0116 0zM7 8a1 1 0 012 0v4a1 1 0 11-2 0V8zm5-1a1 1 0 00-1 1v4a1 1 0 102 0V8a1 1 0 00-1-1z" clip-rule="evenodd"/>
    </symbol>
    <symbol id="icon-resume" viewBox="0 0 20 20">
      <path fill-rule="evenodd" d="M10 18a8 8 0 100-16 8 8 0 000 16zM8 7a1 1 0 012 0v6a1 1 0 11-2 0V7zm4 0a1 1 0 012 0v6a 1 1 0 11-2 0V7z" clip-rule="evenodd"/>
    </symbol>
    <symbol id="icon-mtr" viewBox="0 0 20 20">
      <path d="M9 12l2 2 4-4m6 2a9 9 0 11-18 0 9 9 0 0118 0z"/>
    </symbol>
    <symbol id="icon-traceroute" viewBox="0 0 20 20">
      <path fill-rule="evenodd" d="M4.083 9h1.946c.089-1.546.383-2.97.837-4.118A6.004 6.004 0 004.083 9zM10 2a8 8 0 100 16 8 8 0 000-16zm0 2c-.076 0-.232.032-.465.262-.238.234-.497.623-.737 1.182-.389.907-.673 2.142-.766 3.556h3.936c-.093-1.414-.377-2.649-.766-3.556-.24-.56-.5-.948-.737-1.182C10.232 4.032 10.076 4 10 4zm3.971 5c-.089-1.546-.383-2.97-.837-4.118A6.004 6.004 0 0115.917 9h-1.946zm-2.003 2H8.032c.093 1.414.377 2.649.766 3.556.24.56.5.948.737 1.182.233.23.389.262.465.262.076 0 .232-.032.465-.262.238-.234.498-.623.737-1.182.389-.907.673-2.142.766-3.556zm1.166 4.118c.454-1.147.748-2.572.837-4.118h1.946a6.004 6.004 0 01-2.783 4.118zm-6.268 0C6.412 13.97 6.118 12.546 6.03 11H4.083a6.004 6.004 0 002.783 4.118z" clip-rule="evenodd"/>
    </symbol>
    <symbol id="icon-info" viewBox="0 0 20 20">
      <path fill-rule="evenodd" d="M18 10a8 8 0 11-16 0 8 8 0 0116 0zm-7-4a1 1 0 11-2 0 1 1 0 012 0zM9 9a1 1 0 000 2v3a1 1 0 001 1h1a1 1 0 100-2v-3a1 1 0 00-1-1H9z" clip-rule="evenodd"/>
    </symbol>
  </defs>
</svg>